HIERARCHY
ROOT Hips
{
	OFFSET 0.000000 0.000000 0.000000
	CHANNELS 6 Xposition Yposition Zposition Zrotation Yrotation Xrotation 
	JOINT LHipJoint
	{
		OFFSET 0.000000 0.000000 0.000000
		CHANNELS 3 Zrotation Yrotation Xrotation
		JOINT LeftUpLeg
		{
			OFFSET 1.363060 -1.794630 0.839290
			CHANNELS 3 Zrotation Yrotation Xrotation
			JOINT LeftLeg
			{
				OFFSET 2.448110 -6.726130 0.000000
				CHANNELS 3 Zrotation Yrotation Xrotation
				JOINT LeftFoot
				{
					OFFSET 2.562200 -7.039590 0.000000
					CHANNELS 3 Zrotation Yrotation Xrotation
					JOINT LeftToeBase
					{
						OFFSET 0.157640 -0.433110 2.322550
						CHANNELS 3 Zrotation Yrotation Xrotation
						End Site
						{
							OFFSET 0.000000 0.000000 0.000000
						}
					}
				}
			}
		}
	}
	JOINT RHipJoint
	{
		OFFSET 0.000000 0.000000 0.000000
		CHANNELS 3 Zrotation Yrotation Xrotation
		JOINT RightUpLeg
		{
			OFFSET -1.305520 -1.794630 0.839290
			CHANNELS 3 Zrotation Yrotation Xrotation
			JOINT RightLeg
			{
				OFFSET -2.542530 -6.985550 0.000000
				CHANNELS 3 Zrotation Yrotation Xrotation
				JOINT RightFoot
				{
					OFFSET -2.568260 -7.056230 0.000000
					CHANNELS 3 Zrotation Yrotation Xrotation
					JOINT RightToeBase
					{
						OFFSET -0.164730 -0.452590 2.363150
						CHANNELS 3 Zrotation Yrotation Xrotation
						End Site
						{
							OFFSET 0.000000 0.000000 0.000000
						}
					}
				}
			}
		}
	}
	JOINT LowerBack
	{
		OFFSET 0.000000 0.000000 0.000000
		CHANNELS 3 Zrotation Yrotation Xrotation
		JOINT Spine
		{
			OFFSET 0.028270 2.035590 -0.193380
			CHANNELS 3 Zrotation Yrotation Xrotation
			JOINT Spine1
			{
				OFFSET 0.056720 2.048850 -0.042750
				CHANNELS 3 Zrotation Yrotation Xrotation
				JOINT Neck
				{
					OFFSET 0.000000 0.000000 0.000000
					CHANNELS 3 Zrotation Yrotation Xrotation
					JOINT Neck1
					{
						OFFSET -0.054170 1.746240 0.172020
						CHANNELS 3 Zrotation Yrotation Xrotation
						JOINT Head
						{
							OFFSET 0.104070 1.761360 -0.123970
							CHANNELS 3 Zrotation Yrotation Xrotation
							End Site
							{
								OFFSET 0.000000 0.000000 0.000000
							}
						}
					}
				}
				JOINT LeftShoulder
				{
					OFFSET 0.000000 0.000000 0.000000
					CHANNELS 3 Zrotation Yrotation Xrotation
					JOINT LeftArm
					{
						OFFSET 3.362410 1.200890 -0.311210
						CHANNELS 3 Zrotation Yrotation Xrotation
						JOINT LeftForeArm
						{
							OFFSET 4.983000 -0.000000 -0.000000
							CHANNELS 3 Zrotation Yrotation Xrotation
							JOINT LeftHand
							{
								OFFSET 3.483560 -0.000000 -0.000000
								CHANNELS 3 Zrotation Yrotation Xrotation
								JOINT LeftFingerBase
								{
									OFFSET 0.000000 0.000000 0.000000
									CHANNELS 3 Zrotation Yrotation Xrotation
									JOINT LeftHandIndex1
									{
										OFFSET 0.715260 -0.000000 -0.000000
										CHANNELS 3 Zrotation Yrotation Xrotation
										End Site
										{
											OFFSET 0.000000 0.000000 0.000000
										}
									}
								}
								JOINT LThumb
								{
									OFFSET 0.000000 0.000000 0.000000
									CHANNELS 3 Zrotation Yrotation Xrotation
									End Site
									{
										OFFSET 0.000000 0.000000 0.000000
									}
								}
							}
						}
					}
				}
				JOINT RightShoulder
				{
					OFFSET 0.000000 0.000000 0.000000
					CHANNELS 3 Zrotation Yrotation Xrotation
					JOINT RightArm
					{
						OFFSET -3.136600 1.374050 -0.404650
						CHANNELS 3 Zrotation Yrotation Xrotation
						JOINT RightForeArm
						{
							OFFSET -5.241900 -0.000000 -0.000000
							CHANNELS 3 Zrotation Yrotation Xrotation
							JOINT RightHand
							{
								OFFSET -3.444170 -0.000000 -0.000000
								CHANNELS 3 Zrotation Yrotation Xrotation
								JOINT RightFingerBase
								{
									OFFSET 0.000000 0.000000 0.000000
									CHANNELS 3 Zrotation Yrotation Xrotation
									JOINT RightHandIndex1
									{
										OFFSET -0.622530 -0.000000 -0.000000
										CHANNELS 3 Zrotation Yrotation Xrotation
										End Site
										{
											OFFSET 0.000000 0.000000 0.000000
										}
									}
								}
								JOINT RThumb
								{
									OFFSET 0.000000 0.000000 0.000000
									CHANNELS 3 Zrotation Yrotation Xrotation
									End Site
									{
										OFFSET 0.000000 0.000000 0.000000
									}
								}
							}
						}
					}
				}
			}
		}
	}
}
MOTION
Frames: 8
Frame Time: 0.008333
-20.472379 15.937412 -2.766085 178.683289 83.343839 -177.338198 -10.854002 6.053663 1.000303 2.604149 11.402867 22.424799 -1.053862 0.578163 5.641587 0.767246 5.451233 1.511541 0.842000 -0.000000 -76.390300 9.249313 1.002841 1.896800 10.489768 -6.083647 -51.136313 1.222609 -3.265774 51.124698 -3.390333 -10.365395 -23.246362 2.753700 0.000000 -20.084600 6.421470 -7.378329 -5.595124 1.303000 -7.982388 -3.322814 -5.330166 -7.872254 3.237567 10.397200 -23.467866 -12.525887 -2.163345 -0.092579 -1.222107 0.000000 0.000000 0.000000 3.716011 6.592260 1.913552 -24.610294 -18.746061 10.351614 -1.417940 -50.175777 -0.001718 1.063722 -0.251576 -0.003834 -0.099175 0.252334 0.000000 0.000000 0.000000 0.000000 0.000000 0.000000 0.000000 16.857323 -24.426995 0.966725 84.194513 -29.999383 -13.113215 4.969927 15.631908 0.001108 10.584873 5.017286 0.461147 0.051308 0.018999 0.000000 0.000000 0.000000 0.000000 0.000000 0.000000 0.000000 
-20.246322 15.946564 -2.729401 178.625929 83.112865 -177.502664 -10.846951 6.196784 1.067906 3.086417 11.162709 22.556691 -0.937097 0.755069 6.379859 0.754167 5.366342 3.854005 1.030000 0.000000 -79.433399 9.289762 0.937378 1.862304 10.446114 -6.011807 -49.949688 1.172336 -3.219084 51.444287 -3.606379 -11.209111 -24.250518 3.171900 0.000000 -15.855900 6.490437 -7.432387 -5.709333 1.328596 -8.043519 -3.348730 -5.307753 -7.931865 3.229550 10.402585 -23.508834 -12.534539 -2.157112 -0.092099 -1.222682 0.000000 0.000000 0.000000 3.733945 6.585889 1.941322 -23.992480 -17.969256 10.310087 -1.405900 -49.848419 -0.004135 1.707530 -0.430375 -0.009519 -0.107751 0.251846 0.000000 0.000000 0.000000 0.000000 0.000000 0.000000 0.000000 16.889117 -24.483369 0.922761 83.782635 -30.121105 -13.365469 4.975299 15.469928 0.001379 10.337420 4.996526 0.448254 0.053466 0.018945 0.000000 0.000000 0.000000 0.000000 0.000000 0.000000 0.000000 
-20.016375 15.957202 -2.690187 178.487269 82.859341 -177.771877 -10.836794 6.333934 1.143144 3.561300 10.872086 22.616679 -0.806185 0.936547 7.257661 0.759620 5.266687 6.347158 1.201400 0.000000 -82.307200 9.332232 0.861715 1.806591 10.439433 -6.035635 -48.697816 1.133947 -3.172153 51.710487 -3.824411 -12.054909 -25.304780 3.634201 -0.000000 -11.384100 6.527541 -7.476960 -5.807318 1.345140 -8.092841 -3.370386 -5.288684 -7.979942 3.220685 10.404813 -23.530331 -12.538159 -2.156074 -0.092170 -1.222104 0.000000 0.000000 0.000000 3.735480 6.596514 1.971647 -23.489407 -17.176330 10.319703 -1.403369 -49.456293 -0.006244 2.300474 -0.586520 -0.016302 -0.116086 0.249717 0.000000 0.000000 0.000000 0.000000 0.000000 0.000000 0.000000 16.937027 -24.511043 0.876747 83.348298 -30.165415 -13.682686 4.975109 15.302627 0.001373 10.060416 4.772921 0.416456 0.055560 0.019325 0.000000 0.000000 0.000000 0.000000 0.000000 0.000000 0.000000 
-19.783818 15.969042 -2.648655 178.287582 82.587847 -178.126164 -10.825753 6.461585 1.224158 4.021436 10.529120 22.590528 -0.658653 1.120571 8.300141 0.789558 5.167835 9.004141 1.356000 -0.000000 -84.873900 9.377039 0.776928 1.727206 10.466347 -6.162529 -47.410590 1.108240 -3.128530 51.932776 -4.024977 -12.832486 -26.344995 4.108700 0.000000 -6.966300 6.533343 -7.510423 -5.882235 1.352461 -8.128721 -3.385943 -5.272604 -8.015016 3.213016 10.404670 -23.540408 -12.540542 -2.158499 -0.092564 -1.221499 0.000000 0.000000 0.000000 3.723745 6.630911 2.004505 -23.101454 -16.384070 10.377782 -1.410810 -48.997386 -0.007912 2.817267 -0.717721 -0.023386 -0.123874 0.245933 0.000000 0.000000 0.000000 0.000000 0.000000 0.000000 0.000000 16.997901 -24.518320 0.830590 82.896243 -30.117477 -14.010426 4.969587 15.126131 0.001059 9.765592 4.352935 0.368254 0.057521 0.020206 0.000000 0.000000 0.000000 0.000000 0.000000 0.000000 0.000000 
-19.549503 15.981761 -2.605059 178.050560 82.307900 -178.541066 -10.817351 6.575488 1.308504 4.461718 10.142417 22.458039 -0.493670 1.303179 9.537625 0.849136 5.077825 11.823980 1.492501 -0.000000 -86.960500 9.424289 0.684196 1.623573 10.521858 -6.391907 -46.116299 1.095063 -3.090965 52.122359 -4.189922 -13.476995 -27.305132 4.555500 -0.000000 -2.951801 6.510527 -7.530353 -5.928418 1.350324 -8.148967 -3.394272 -5.261220 -8.034939 3.206625 10.404530 -23.538695 -12.543628 -2.164712 -0.093274 -1.221453 0.000000 0.000000 0.000000 3.703113 6.688663 2.039967 -22.827141 -15.593238 10.480542 -1.428731 -48.478691 -0.009036 3.235635 -0.822607 -0.029870 -0.130889 0.240465 0.000000 0.000000 0.000000 0.000000 0.000000 0.000000 0.000000 17.075451 -24.503596 0.786232 82.433949 -29.971230 -14.325879 4.959868 14.948450 0.000391 9.477937 3.730858 0.305748 0.059240 0.021675 0.000000 0.000000 0.000000 0.000000 0.000000 0.000000 0.000000 
-19.314654 15.995049 -2.559712 177.806336 82.033610 -178.984257 -10.816283 6.670662 1.393459 4.880624 9.730730 22.193733 -0.313106 1.478170 11.005379 0.941722 4.996340 14.777732 1.607500 -0.000000 -88.350800 9.473392 0.584887 1.497108 10.601963 -6.714436 -44.839035 1.094101 -3.061026 52.291655 -4.305891 -13.936529 -28.139873 -175.062300 0.000000 -0.442200 6.464565 -7.533418 -5.942150 1.338814 -8.150704 -3.395296 -5.257236 -8.036806 3.199458 10.405992 -23.519262 -12.546712 -2.176060 -0.094442 -1.221782 0.000000 0.000000 0.000000 3.679840 6.755082 2.077788 -22.666888 -14.777575 10.618079 -1.457485 -47.919562 -0.009549 3.535869 -0.899838 -0.034955 -0.136946 0.233250 0.000000 0.000000 0.000000 0.000000 0.000000 0.000000 0.000000 17.172782 -24.458644 0.746725 81.971477 -29.726552 -14.627836 4.948242 14.779854 -0.000681 9.232739 2.897791 0.230636 0.060615 0.023835 0.000000 0.000000 0.000000 0.000000 0.000000 0.000000 0.000000 
-19.080432 16.008552 -2.512991 177.571240 81.780894 -179.435308 -10.825440 6.740681 1.477196 5.264269 9.300763 21.784686 -0.121842 1.637530 12.721295 1.069696 4.942684 17.807766 1.706600 -0.000000 -88.790700 9.523698 0.481044 1.349967 10.700294 -7.114046 -43.596737 1.104873 -3.039578 52.453022 -4.365571 -14.177179 -28.829397 -174.771900 -0.000000 -3.160300 6.401442 -7.516185 -5.920469 1.318660 -8.130963 -3.388302 -5.261756 -8.017659 3.192567 10.410150 -23.483834 -12.551739 -2.191536 -0.095947 -1.223063 0.000000 0.000000 0.000000 3.652089 6.834286 2.117751 -22.612189 -13.940533 10.788570 -1.497513 -47.323508 -0.009426 3.705725 -0.951676 -0.038141 -0.141990 0.224322 0.000000 0.000000 0.000000 0.000000 0.000000 0.000000 0.000000 17.286202 -24.383888 0.714323 81.512213 -29.371280 -14.887687 4.937362 14.617578 -0.002189 9.062518 1.855451 0.144018 0.061579 0.026806 0.000000 0.000000 0.000000 0.000000 0.000000 0.000000 0.000000 
-18.847826 16.021982 -2.465304 177.350067 81.566103 -179.885518 -10.845886 6.779008 1.557389 5.592622 8.857008 21.226328 0.071053 1.773573 14.692920 1.231324 4.947878 20.819445 1.806100 -0.000000 -88.034600 9.574837 0.374759 1.185298 10.808339 -7.569916 -42.397851 1.126075 -3.026513 52.614615 -4.367809 -14.188516 -29.369574 -174.588000 0.000000 -5.226900 6.326635 -7.475655 -5.860971 1.290510 -8.087078 -3.372661 -5.275947 -7.974856 3.186648 10.417742 -23.432095 -12.559470 -2.210259 -0.097694 -1.225562 0.000000 0.000000 0.000000 3.614803 6.935278 2.159941 -22.649101 -13.091754 10.993250 -1.549198 -46.690749 -0.008707 3.742524 -0.981650 -0.039228 -0.146096 0.213756 0.000000 0.000000 0.000000 0.000000 0.000000 0.000000 0.000000 17.411178 -24.278173 0.689181 81.051535 -28.894797 -15.097407 4.922635 14.457464 -0.003988 8.893612 0.654619 0.048197 0.062488 0.030371 0.000000 0.000000 0.000000 0.000000 0.000000 0.000000 0.000000 
